<svg width="512" height="512" viewBox="0 0 512 512" fill="none" xmlns="http://www.w3.org/2000/svg">
  <defs>
    <linearGradient id="grad1" x1="0%" y1="0%" x2="100%" y2="100%">
      <stop offset="0%" style="stop-color:#4F9CFF;stop-opacity:1" />
      <stop offset="100%" style="stop-color:#3D84E5;stop-opacity:1" />
    </linearGradient>
    <linearGradient id="grad2" x1="100%" y1="0%" x2="0%" y2="100%">
      <stop offset="0%" style="stop-color:#FF4FD2;stop-opacity:1" />
      <stop offset="100%" style="stop-color:#E63FB8;stop-opacity:1" />
    </linearGradient>
    <filter id="glow" x="-20%" y="-20%" width="140%" height="140%">
      <feGaussianBlur stdDeviation="15" result="blur" />
      <feComposite in="SourceGraphic" in2="blur" operator="over" />
    </filter>
  </defs>
  
  <!-- Outer Shield Glow -->
  <path d="M256 64L416 144V272C416 368 348 458 256 480C164 458 96 368 96 272V144L256 64Z" 
        fill="#000" fill-opacity="0.3" filter="url(#glow)" />

  <!-- Left Half (Blue) representing Technology/Structure -->
  <path d="M256 64L96 144V272C96 352 153 428 240 460V248L256 232L240 216V64" 
        fill="url(#grad1)" />

  <!-- Right Half (Magenta) representing Creativity/Ambition -->
  <path d="M256 64L416 144V272C416 352 359 428 272 460V248L256 232L272 216V64" 
        fill="url(#grad2)" />
        
  <!-- Core Abstract "Spark" or "Book Spine" negative space effect -->
  <path d="M256 96L288 232L256 264L224 232L256 96Z" fill="#FFFFFF" fill-opacity="0.9" />

</svg>
